<svg id="Bullet" xmlns="http://www.w3.org/2000/svg" xmlns:xlink="http://www.w3.org/1999/xlink" width="16" height="16" viewBox="0 0 16 16">
  <defs>
    <clipPath id="clip-path">
      <circle id="Oval" cx="8" cy="8" r="8" fill="none"/>
    </clipPath>
    <clipPath id="clip-path-2">
      <path id="Mask" d="M5.476,2.9a.478.478,0,0,1-.138.339L2.917,5.658a.5.5,0,0,1-.339.138.486.486,0,0,1-.335-.138l-.279-.279a.476.476,0,0,1,0-.677l1.09-1.09H.435A.446.446,0,0,1,0,3.136V2.66a.446.446,0,0,1,.435-.476H3.054L1.964,1.09a.467.467,0,0,1,0-.67L2.243.141A.473.473,0,0,1,2.578,0a.482.482,0,0,1,.339.141L5.339,2.563A.463.463,0,0,1,5.476,2.9Z" fill="#b8ce9f"/>
    </clipPath>
  </defs>
  <g id="Mask-2" data-name="Mask">
    <g id="Grupo_1" data-name="Grupo 1">
      <circle id="Oval-2" data-name="Oval" cx="8" cy="8" r="8" fill="none"/>
    </g>
  </g>
  <g id="Atoms_Colors_343A40" data-name="Atoms / Colors / #343A40">
    <rect id="Rectangle_4" data-name="Rectangle 4" width="16" height="16" fill="#fff"/>
  </g>
  <g id="Atoms_Icons_Envelope" data-name="Atoms / Icons / Envelope" transform="translate(5.333 5)">
    <g id="Grupo_4" data-name="Grupo 4">
      <path id="Mask-3" data-name="Mask" d="M5.476,2.9a.478.478,0,0,1-.138.339L2.917,5.658a.5.5,0,0,1-.339.138.486.486,0,0,1-.335-.138l-.279-.279a.476.476,0,0,1,0-.677l1.09-1.09H.435A.446.446,0,0,1,0,3.136V2.66a.446.446,0,0,1,.435-.476H3.054L1.964,1.09a.467.467,0,0,1,0-.67L2.243.141A.473.473,0,0,1,2.578,0a.482.482,0,0,1,.339.141L5.339,2.563A.463.463,0,0,1,5.476,2.9Z" fill="#b8ce9f"/>
      <g id="Enmascarar_grupo_4" data-name="Enmascarar grupo 4" clip-path="url(#clip-path-2)">
        <g id="Icon_color" data-name="Icon color" transform="translate(-1.333 -1)">
          <rect id="Rectangle_4-2" data-name="Rectangle 4" width="8" height="8" fill="#b8ce9f"/>
        </g>
      </g>
    </g>
  </g>
</svg>
