<svg xmlns="http://www.w3.org/2000/svg" width="21.009" height="21" viewBox="0 0 21.009 21">
  <g id="calendar" transform="translate(0 -0.114)">
    <path id="Trazado_6657" data-name="Trazado 6657" d="M16.953,1.727h-.784V.934a.82.82,0,0,0-1.641,0v.793H6.48V.934a.82.82,0,1,0-1.641,0v.793H4.056A4.061,4.061,0,0,0,0,5.783V17.058a4.061,4.061,0,0,0,4.056,4.056h12.9a4.061,4.061,0,0,0,4.056-4.056V5.783a4.061,4.061,0,0,0-4.056-4.056ZM4.056,3.368H4.84v1.6a.82.82,0,0,0,1.641,0v-1.6h8.048v1.6a.82.82,0,1,0,1.641,0v-1.6h.784a2.418,2.418,0,0,1,2.416,2.416v.784H1.641V5.783A2.418,2.418,0,0,1,4.056,3.368Zm12.9,16.105H4.056a2.418,2.418,0,0,1-2.416-2.416V8.208H19.369v8.85A2.418,2.418,0,0,1,16.953,19.473ZM7.287,11.434a.82.82,0,0,1-.82.82H4.854a.82.82,0,1,1,0-1.641H6.467A.82.82,0,0,1,7.287,11.434Zm9.689,0a.82.82,0,0,1-.82.82H14.543a.82.82,0,1,1,0-1.641h1.613A.82.82,0,0,1,16.976,11.434Zm-4.849,0a.82.82,0,0,1-.82.82H9.693a.82.82,0,1,1,0-1.641h1.613A.82.82,0,0,1,12.127,11.434Zm-4.84,4.84a.82.82,0,0,1-.82.82H4.854a.82.82,0,0,1,0-1.641H6.467A.82.82,0,0,1,7.287,16.274Zm9.689,0a.82.82,0,0,1-.82.82H14.543a.82.82,0,0,1,0-1.641h1.613A.82.82,0,0,1,16.976,16.274Zm-4.849,0a.82.82,0,0,1-.82.82H9.693a.82.82,0,1,1,0-1.641h1.613A.82.82,0,0,1,12.127,16.274Z" fill="#777"/>
  </g>
</svg>
