<svg xmlns="http://www.w3.org/2000/svg" width="21.89" height="13.952" viewBox="0 0 21.89 13.952">
  <g id="view" transform="translate(0 -92.835)">
    <g id="Grupo_463" data-name="Grupo 463" transform="translate(0 92.835)">
      <g id="Grupo_462" data-name="Grupo 462" transform="translate(0 0)">
        <path id="Trazado_6658" data-name="Trazado 6658" d="M21.751,99.385c-.2-.268-4.855-6.55-10.806-6.55S.334,99.118.139,99.385a.722.722,0,0,0,0,.852c.2.268,4.855,6.55,10.806,6.55s10.61-6.283,10.806-6.55A.721.721,0,0,0,21.751,99.385Zm-10.806,5.958c-4.383,0-8.18-4.17-9.3-5.533,1.122-1.364,4.911-5.532,9.3-5.532s8.18,4.169,9.3,5.533C19.126,101.176,15.338,105.343,10.945,105.343Z" transform="translate(0 -92.835)" fill="#777"/>
      </g>
    </g>
    <g id="Grupo_465" data-name="Grupo 465" transform="translate(6.615 95.481)">
      <g id="Grupo_464" data-name="Grupo 464" transform="translate(0 0)">
        <path id="Trazado_6659" data-name="Trazado 6659" d="M159.052,154.725a4.33,4.33,0,1,0,4.33,4.33A4.335,4.335,0,0,0,159.052,154.725Zm0,7.216a2.887,2.887,0,1,1,2.887-2.887A2.89,2.89,0,0,1,159.052,161.941Z" transform="translate(-154.722 -154.725)" fill="#777"/>
      </g>
    </g>
  </g>
</svg>
